<?xml version="1.0" encoding="utf-8"?>
<svg viewBox="0 0 500 500" width="500px" height="500px" xmlns="http://www.w3.org/2000/svg" xmlns:bx="https://boxy-svg.com">
  <defs>
    <linearGradient gradientUnits="userSpaceOnUse" x1="220.876" y1="160.8" x2="220.876" y2="348.169" id="gradient-0" gradientTransform="matrix(0.881654, 0.525998, -0.269378, 0.560983, 78.632818, 12.37819)">
      <stop offset="0" style="stop-color: rgba(255, 189, 89, 1)"/>
      <stop offset="1" style="stop-color: rgba(242, 145, 0, 1)"/>
    </linearGradient>
    <linearGradient gradientUnits="userSpaceOnUse" x1="254.31" y1="155.104" x2="254.31" y2="362.941" id="gradient-1" gradientTransform="matrix(0.422269, 0.134643, -0.111465, 0.404666, 209.378843, 153.328975)">
      <stop offset="0" style="stop-color: rgb(148, 125, 193);"/>
      <stop offset="1" style="stop-color: rgb(123, 95, 180);"/>
    </linearGradient>
    <linearGradient gradientUnits="userSpaceOnUse" x1="83.318" y1="220.666" x2="83.318" y2="354.021" id="gradient-3" gradientTransform="matrix(1, 0, 0, 1, 96.171179, -82.085524)">
      <stop offset="0" style="stop-color: rgba(253, 187, 88, 1)"/>
      <stop offset="1" style="stop-color: rgba(236, 143, 3, 1)"/>
    </linearGradient>
    <linearGradient gradientUnits="userSpaceOnUse" x1="294.452" y1="229.245" x2="294.452" y2="342.872" id="gradient-4" gradientTransform="matrix(1.056738, 0, -0.000001, 1.037767, -20.676537, -17.022809)">
      <stop offset="0" style="stop-color: rgba(123, 95, 180, 1)"/>
      <stop offset="1" style="stop-color: rgba(76, 55, 118, 1)"/>
    </linearGradient>
    <style bx:fonts="Quicksand">@import url(https://fonts.googleapis.com/css2?family=Quicksand%3Aital%2Cwght%400%2C300%3B0%2C400%3B0%2C500%3B0%2C600%3B0%2C700&amp;display=swap);</style>
  </defs>
  <text style="fill: url(#gradient-0); fill-rule: evenodd; font-family: Quicksand; font-size: 150px; font-weight: 700; paint-order: fill; white-space: pre; visibility: hidden;" transform="matrix(2.713143, 0.001968, 0, 2.651149, -351.64593, -426.659265)" x="171.751" y="310.735">B</text>
  <path style="fill: none; stroke: url(#gradient-1); stroke-width: 15px; visibility: hidden;" d="M 310.968 253.78 L 312.071 253.04850000000002 C 313.17400000000004 252.317 315.38000000000005 250.854 315.57750000000004 248.98183333333336 C 315.77500000000003 247.10966666666664 313.964 244.82833333333335 313.05850000000004 243.68766666666667 C 312.153 242.547 312.153 242.547 312.153 242.547 C 312.153 242.547 312.153 242.547 312.1295 242.52166666666665 C 312.106 242.49633333333335 312.059 242.44566666666665 311.5876666666667 242.0185 C 311.11633333333333 241.59133333333332 310.22066666666666 240.7876666666667 307.108 239.55650000000003 C 303.99533333333335 238.32533333333333 298.6656666666667 236.66666666666666 291.09183333333334 236.67383333333336 C 283.51800000000003 236.681 273.7 238.354 268.4665 244.011 C 263.233 249.66799999999998 262.584 259.30899999999997 263.6218333333333 266.42216666666667 C 264.6596666666667 273.5353333333333 267.38433333333336 278.1206666666667 273.8766666666666 280.254 C 280.36899999999997 282.38733333333334 290.62899999999996 282.0686666666667 299.35633333333334 283.6043333333334 C 308.08366666666666 285.14000000000004 315.27833333333336 288.53000000000003 319.87333333333333 293.9046666666667 C 324.4683333333333 299.27933333333334 326.4636666666667 306.63866666666667 325.839 313.7046666666667 C 325.21433333333334 320.7706666666666 321.9696666666667 327.5433333333333 314.65333333333336 331.18666666666667 C 307.337 334.83 295.949 335.344 287.3865 335.1086666666667 C 278.824 334.87333333333333 273.087 333.88866666666667 271.24216666666666 331.9386666666667 C 269.39733333333334 329.9886666666667 271.4446666666667 327.0733333333333 272.46833333333336 325.61566666666664 L 273.492 324.158" bx:d="M 310.968 253.78 U 317.586 249.391 U 312.153 242.547 U 312.153 242.547 U 312.153 242.547 U 312.012 242.395 U 309.325 239.984 U 293.336 235.008 U 263.882 240.027 U 261.935 268.95 U 270.109 282.706 U 300.889 281.75 U 322.473 291.92 U 328.459 313.998 U 318.725 334.316 U 284.561 335.858 U 267.35 332.904 U 273.492 324.158 1@87eeeae3" bx:origin="0.485 0.493"/>
  <text style="fill: rgb(51, 51, 51); font-family: Quicksand; font-size: 91px; font-weight: 700; white-space: pre; opacity: 0.35; visibility: hidden;" x="176.781" y="294.171">asi</text>
  <text style="fill: rgb(51, 51, 51); font-family: Quicksand; font-size: 91px; font-weight: 700; white-space: pre; visibility: hidden;" x="330.84" y="333.372">kill</text>
  <g transform="matrix(1, 0, 0, 1, -27.958677, 38.776756)" style="visibility: hidden;">
    <title>a</title>
    <line style="stroke-linecap: round; stroke-width: 9px; fill: none; stroke: rgb(18, 18, 20);" x1="203.974" y1="200.979" x2="204.192" y2="240.955"/>
    <path style="stroke-linecap: round; stroke-width: 11px; stroke-linejoin: round; fill: none; stroke: rgb(18, 18, 20);" d="M 202.56 211.496 C 199.55 208.228 194.986 203.704 190.099 202.499 C 183.288 200.82 175.448 202.959 170.7 207.708 C 165.243 213.164 165.521 231.009 172.004 237.491 C 175.056 240.543 181.677 243.439 188.274 242.354 C 195.071 241.237 199.193 238.418 202.888 234.473"/>
  </g>
  <path style="fill: none; stroke-linecap: round; stroke-width: 9px; stroke: rgb(18, 18, 20); stroke-opacity: 0.29; visibility: hidden;" d="M 218.744 246.24 C 216.788 242.24 213.658 240.763 210.05 240.372 C 203.772 239.691 198.112 240.943 195.269 244.067 C 193.802 245.679 192.796 249.485 193.096 252.109 C 193.398 254.751 195.515 258.548 199.833 258.847 C 209.537 259.518 215.862 261.495 218.091 267.541 C 218.752 269.334 219.074 272.386 217.657 276.018 C 217.007 277.685 215.405 279.578 212.833 280.592 C 207.948 282.519 202.744 282.358 198.312 280.8 C 196.056 280.007 192.846 277.974 191.357 274.931">
    <title>s</title>
  </path>
  <g transform="matrix(1, 0, 0, 1, -31.773044, 40.68394)" style="visibility: hidden;">
    <title>i</title>
    <line style="fill: rgb(216, 216, 216); stroke-linecap: round; stroke-width: 10px; stroke: rgb(18, 18, 20);" x1="269.86" y1="201.829" x2="269.86" y2="241.388"/>
    <path style="fill: none; stroke-linecap: round; stroke-width: 6px; stroke: rgb(18, 18, 20);" d="M 270.295 188.788 C 273.549 188.788 275.583 185.265 273.956 182.447 C 272.329 179.628 268.261 179.628 266.634 182.447 C 265.891 183.733 265.878 185.316 266.6 186.614 C 267.409 187.893 268.785 188.702 270.295 188.788 Z" bx:origin="0.449 0.526"/>
  </g>
  <g transform="matrix(1, 0, 0, 1, 18.449449, 48.312675)" style="visibility: hidden;">
    <title>k</title>
    <path style="fill: none; stroke-linecap: round; stroke-linejoin: round; stroke-width: 10px; stroke: rgb(18, 18, 20); stroke-opacity: 0.26;" d="M 324.857 222.505 L 324.857 279.596 C 324.089 269.956 352.212 235.082 353.693 239.496"/>
    <path style="fill: none; stroke-width: 10px; stroke-linecap: round; stroke: rgb(18, 18, 20); stroke-opacity: 0.26;" d="M 354.446 279.665 C 353.472 280.249 336.933 262.713 337.17 257.766"/>
  </g>
  <g transform="matrix(1, 0, 0, 1, 121.82044, 88.754363)" style="visibility: hidden;">
    <title>i</title>
    <line style="fill: rgb(216, 216, 216); stroke-linecap: round; stroke-width: 10px; stroke: rgb(18, 18, 20);" x1="269.86" y1="201.829" x2="269.86" y2="241.388"/>
    <path style="fill: none; stroke-linecap: round; stroke-width: 6px; stroke: rgb(18, 18, 20);" d="M 270.295 188.788 C 273.549 188.788 275.583 185.265 273.956 182.447 C 272.329 179.628 268.261 179.628 266.634 182.447 C 265.891 183.733 265.878 185.316 266.6 186.614 C 267.409 187.893 268.785 188.702 270.295 188.788 Z" bx:origin="0.449 0.526"/>
  </g>
  <line style="fill: rgb(216, 216, 216); stroke-linecap: round; stroke-width: 10px; stroke: rgb(18, 18, 20); stroke-opacity: 0.43; visibility: hidden;" x1="413.371" y1="274.084" x2="413.371" y2="330.294"/>
  <line style="fill: rgb(216, 216, 216); stroke-linecap: round; stroke-width: 10px; stroke: rgb(18, 18, 20); stroke-opacity: 0.28; visibility: hidden;" x1="433.441" y1="273.165" x2="433.441" y2="329.375"/>
  <g transform="matrix(1, 0, 0, 1, -96.656943, 20.399957)">
    <path style="fill: url(#gradient-3);" d="M 150.782 159.082 L 150.548 193.349 L 174.242 192.344 C 181.407 191.905 193.853 190.935 198.853 186.561 C 202.633 182.655 204.696 177.197 204.193 173.334 C 203.813 169.698 201.043 164.243 195.899 161.622 C 187.952 157.747 178.611 156.656 170.731 156.991 C 168.376 157.091 151.807 157.882 150.782 159.082 Z M 147.493 141.622 C 150.061 140.995 175.814 138.742 178.592 138.603 C 184.128 138.329 196.367 140.475 202.958 144.191 C 212.003 149.291 221.737 162.641 222.019 170.988 C 223.817 182.458 217.635 198.815 207.681 204.407 C 218.533 207.553 225.687 221.943 225.745 230.051 C 226.422 240.273 223.46 249.391 217.768 257.371 C 211.873 265.025 196.961 271.557 187.865 271.754 C 183.206 272.107 143.544 272.057 140.315 270.556 C 134.212 267.628 133.652 264.812 133.138 260.067 L 133.359 155.598 C 133.096 149.739 138.019 143.015 147.493 141.622 Z M 150.782 212.122 L 151.081 253.474 C 151.081 253.474 165.783 255.082 179.461 254.209 C 191.504 253.439 199.432 249.185 203.136 246.081 C 204.478 244.953 205.249 243.914 205.904 242.422 C 207.111 239.667 208.084 235.702 207.455 231.079 C 206.708 225.581 200.837 220.743 197.953 218.677 C 191.887 214.33 183.827 212.59 179.54 212.373 C 175.218 211.934 150.815 211.991 150.782 212.122 Z"/>
  </g>
  <path style="fill: url(#gradient-4);" d="M 305.457 239.347 L 313.305 250.397 C 316.818 249.861 320.864 245.406 319.575 236.959 C 318.935 232.754 314.408 228.539 310.234 225.753 C 306.05 222.958 295.818 220.695 286.572 220.894 C 278.569 221.067 271.282 222.404 263.126 226.809 C 256.881 230.473 252.261 236.813 250.649 243.073 C 249.763 245.55 248.791 254.89 249.79 259.762 C 250.715 265.824 252.639 270.48 255.205 273.401 C 257.491 276.024 262.533 280.475 269.794 281.731 C 274.037 282.547 286.468 283.418 292.81 284.687 C 296.611 285.281 303.141 287.365 309.036 290.854 C 313.47 293.54 315.06 300.723 315.704 304.795 C 315.839 309.475 314.15 315.294 310.449 318.487 C 307.87 321.021 298.652 323.234 291.306 323.133 C 287.648 323.234 277.332 323.093 273.237 322.711 L 262.266 315.107 C 258.872 317.738 257.398 321.439 257.318 324.4 C 257.271 328.346 258.039 331.158 261.406 333.907 C 263.298 335.453 269.582 337.597 274.957 338.342 C 279.282 338.943 289.256 338.886 294.316 338.553 C 300.75 338.185 308.933 336.047 311.74 334.963 C 315.701 333.807 321.998 329.85 324.645 326.936 C 327.696 323.723 329.958 318.418 331.099 312.783 C 331.857 309.03 331.78 302.21 330.668 297.363 C 329.532 292.408 327.505 288.84 324.216 284.687 C 322.119 282.042 318.429 277.424 311.954 274.338 C 309.141 272.809 302.952 270.34 297.973 269.902 C 294.954 269.742 278.606 267.968 275.817 267.578 C 270.376 267.122 266.94 264.663 266.137 261.029 C 265.41 258.572 264.764 253.056 265.574 248.767 C 266.251 245.458 268.059 241.705 271.679 239.642 C 274.305 238.192 279.584 236.296 283.951 235.892 C 286.552 235.65 290.701 235.906 293.723 236.324 C 296.363 236.69 302.275 237.015 305.457 239.347 Z" transform="matrix(0.99962, 0.027579, -0.027579, 0.99962, 7.828224, -7.904775)"/>
  <path style="fill: rgb(25, 25, 25); paint-order: stroke;" d="M 176.172 235.705 C 178.935 235.967 180.339 237.777 180.459 239.438 L 180.782 282.007 C 180.751 282.678 178.572 284.302 176.574 284.273 C 175.194 284.289 173.55 283.195 172.528 282.654 C 171.78 282.892 169.396 284.025 168.481 284.434 C 167.755 284.819 163.332 286.471 161.036 286.539 C 158.893 286.625 151.971 286.48 150.06 285.934 C 148.204 285.404 142.656 282.948 140.715 281.048 C 139.036 279.544 136.084 274.728 135.467 272.627 C 134.784 270.3 133.877 265.829 133.682 263.717 C 133.391 260.564 133.429 255.023 134.006 252.71 C 134.412 250.858 136.833 245.272 137.98 243.689 C 139.478 241.302 142.421 239.015 145.588 237.539 C 148.943 235.975 151.413 235.64 154.562 235.392 C 157.55 235.156 160.811 235.43 163.572 235.877 C 167.717 236.635 169.662 238.68 171.718 240.086 C 171.751 238.547 173.317 235.722 176.172 235.705 Z M 171.557 254.653 C 170.448 252.702 169.111 250.564 167.357 249.184 C 165.423 247.663 162.046 246.409 160.449 246.279 C 156.009 245.579 152.628 246.49 150.08 247.749 C 146.11 250.29 144.579 253.522 144.21 257.373 C 144.002 259.363 143.606 267.049 145.99 270.322 C 147.442 272.316 150.645 274.476 153.69 275.037 C 156.616 275.576 162.929 274.967 165.082 274.399 C 167.235 273.831 170.863 270.594 171.718 268.734 L 171.557 254.653 Z"/>
  <path style="fill: rgb(25, 25, 25); visibility: hidden;" d="M 212.051 242.553 C 212.033 242.539 214.987 244.761 216.561 244.929 C 218.718 244.144 220.297 241.263 218.993 239.894 C 217.93 238.778 215.906 237.898 214.109 236.699 C 212.307 235.496 207.901 234.522 203.919 234.607 C 200.472 234.68 197.334 235.257 193.822 237.154 C 191.133 238.732 189.143 241.463 188.448 244.158 C 188.068 245.224 187.65 249.247 188.08 251.344 C 188.477 253.955 189.306 255.961 190.411 257.217 C 191.395 258.347 193.567 260.263 196.694 260.804 C 198.52 261.157 203.875 261.532 206.606 262.078 C 208.243 262.334 211.054 263.231 213.593 264.735 C 215.502 265.89 216.186 268.984 216.464 270.738 C 216.523 272.752 215.795 275.259 214.2 276.632 C 213.09 277.725 209.121 278.677 205.957 278.634 C 204.382 278.677 199.939 278.617 198.176 278.452 C 196.254 277.96 195.441 276.793 193.003 276.84 C 191.702 277.332 191.216 278.345 191.321 279.179 C 191.533 280.867 191.632 282.09 193.081 283.274 C 193.896 283.939 196.602 284.862 198.917 285.184 C 200.78 285.443 205.075 285.417 207.254 285.274 C 210.025 285.115 213.548 284.195 214.758 283.728 C 216.463 283.23 219.175 281.526 220.315 280.272 C 221.628 278.888 222.602 276.604 223.094 274.178 C 223.42 272.561 223.388 269.623 222.908 267.536 C 222.418 265.404 221.545 263.866 220.13 262.078 C 219.227 260.94 217.637 258.95 214.849 257.621 C 213.638 256.962 210.972 255.9 208.828 255.71 C 207.528 255.642 200.489 254.878 199.287 254.711 C 196.943 254.513 195.464 253.455 195.12 251.89 C 194.805 250.831 194.528 248.457 194.877 246.609 C 195.169 245.184 195.947 243.569 197.506 242.68 C 198.637 242.056 200.91 241.239 202.79 241.065 C 203.91 240.961 205.697 241.071 206.998 241.251 C 208.135 241.409 210.682 241.549 212.051 242.553 Z" transform="matrix(0.99962, 0.027579, -0.027579, 0.99962, 7.248503, -5.571442)"/>
  <path style="fill: rgb(25, 25, 25);" d="M 233.005 241.773 L 233.175 283.169 C 233.253 285.263 236.397 287.156 238.302 287.128 C 240.078 287.102 243.05 285.415 243.166 283.421 L 243.292 242.149 C 243.427 239.748 240.919 237.53 238.525 237.508 C 235.43 237.219 232.908 239.749 233.005 241.773 Z"/>
  <path style="fill: rgb(25, 25, 25);" d="M 238.65 218.166 C 234.355 218.093 231.896 220.918 231.784 224.972 C 231.825 228.667 234.269 232.403 238.619 232.323 C 243.081 232.241 245.575 229.127 245.627 225.033 C 245.569 221.12 242.668 218.234 238.65 218.166 Z"/>
  <path style="fill: rgb(25, 25, 25);" d="M 380.525 286.718 L 380.695 328.114 C 380.773 330.208 383.917 332.101 385.822 332.073 C 387.598 332.047 390.57 330.36 390.686 328.366 L 390.812 287.094 C 390.947 284.693 388.439 282.475 386.045 282.453 C 382.95 282.164 380.428 284.694 380.525 286.718 Z"/>
  <path style="fill: rgb(25, 25, 25);" d="M 386.17 263.111 C 381.875 263.038 379.416 265.863 379.304 269.917 C 379.345 273.612 381.789 277.348 386.139 277.268 C 390.601 277.186 393.095 274.072 393.147 269.978 C 393.089 266.065 390.188 263.179 386.17 263.111 Z"/>
  <path style="fill: rgb(25, 25, 25);" d="M 401.825 272.337 L 401.995 326.856 C 402.073 329.614 405.217 332.107 407.122 332.07 C 408.898 332.036 411.87 329.814 411.986 327.188 L 412.112 272.833 C 412.247 269.67 409.739 266.749 407.345 266.72 C 404.25 266.34 401.728 269.672 401.825 272.337 Z"/>
  <path style="fill: rgb(25, 25, 25);" d="M 421.758 272.138 L 421.928 326.657 C 422.006 329.415 425.15 331.908 427.055 331.871 C 428.831 331.837 431.803 329.615 431.919 326.989 L 432.045 272.634 C 432.18 269.471 429.672 266.55 427.278 266.521 C 424.183 266.141 421.661 269.473 421.758 272.138 Z"/>
  <path style="fill: rgb(25, 25, 25);" d="M 337.985 272.848 L 338.155 327.367 C 338.233 330.125 341.377 332.618 343.282 332.581 C 345.058 332.547 348.03 330.325 348.146 327.699 L 348.272 273.344 C 348.407 270.181 345.899 267.26 343.505 267.231 C 340.41 266.851 337.888 270.183 337.985 272.848 Z"/>
  <path style="fill: rgb(25, 25, 25);" d="M 348.631 285.226 L 348.801 329.417 C 348.879 331.652 352.023 333.673 353.928 333.643 C 355.704 333.615 358.676 331.814 358.792 329.686 L 358.918 285.628 C 359.053 283.064 356.545 280.697 354.151 280.673 C 351.056 280.365 348.534 283.066 348.631 285.226 Z" transform="matrix(0.888209, 0.45944, -0.45944, 0.888209, 180.664213, -128.202498)"/>
  <path style="fill: rgb(25, 25, 25);" d="M 356.991 305.985 L 357.926 330.719 C 358.037 331.969 360.962 333.101 362.711 333.084 C 364.343 333.068 367.043 332.06 367.111 330.869 L 366.451 306.21 C 366.53 304.775 364.183 303.449 361.983 303.437 C 359.135 303.264 356.863 304.775 356.991 305.985 Z" transform="matrix(-0.826619, 0.562762, -0.562762, -0.826619, 840.425647, 377.581324)"/>
  <path style="fill: rgb(25, 25, 25);" d="M 213.181 246.235 C 214.527 247.33 215.184 249.34 216.738 250.385 C 218.076 251.103 220.457 250.45 221.25 249.924 C 221.988 249.434 223.23 248.086 223.325 246.515 C 222.752 243.939 221.2 241.728 220.624 240.9 C 219.915 239.881 216.544 237.617 214.993 237.046 C 213.35 236.441 207.462 235.703 205.326 235.861 C 204.011 235.892 199.514 236.406 196.73 237.639 C 192.941 239.317 192.012 240.281 190.329 243.016 C 189.5 244.362 188.318 249.047 188.513 251.389 C 188.723 254.313 189.884 257.055 191.098 258.536 C 192.428 260.347 195.519 262.332 197.323 262.834 C 198.84 263.369 204.433 263.788 205.771 264.168 C 207.024 264.317 211.035 265.606 212.737 266.984 C 213.887 267.926 214.449 270.401 214.219 272.023 C 213.836 274.422 212.117 276.678 209.624 277.21 C 207.829 277.593 203.57 278.267 200.435 276.765 C 198.163 275.787 195.962 274.125 194.804 272.616 C 193.777 271.186 191.423 270.391 190.061 270.837 C 188.659 271.319 187.304 272.723 186.8 274.246 C 186.265 276.439 187.005 278.082 189.024 279.878 C 190.17 281.249 194.385 283.975 195.841 284.62 C 197.333 285.18 201.903 286.424 203.696 286.547 C 205.767 286.634 210.172 286.209 212.44 285.51 C 215.558 284.765 217.802 282.914 219.291 281.838 C 220.75 280.565 221.726 279.375 222.552 276.651 C 223.271 274.281 223.156 271.384 222.963 269.652 C 222.736 267.617 222.414 265.742 221.184 263.723 C 219.982 261.711 218.478 259.627 215.849 258.388 C 213.663 257.292 210.876 256.184 209.18 255.72 C 207.056 255.139 203.385 254.843 201.917 254.535 C 200.076 254.099 198.394 253.722 197.471 251.867 C 196.894 250.289 197.476 248.61 198.179 247.432 C 198.93 246.173 200.132 245.468 202.18 244.912 C 203.646 244.469 206.05 244.323 208.142 244.605 C 209.276 244.765 211.995 245.27 213.181 246.235 Z"/>
</svg>