<?xml version="1.0" encoding="utf-8"?>
<svg viewBox="0 0 500 500" width="500" height="500" xmlns="http://www.w3.org/2000/svg">
  <defs>
    <linearGradient gradientUnits="userSpaceOnUse" x1="83.318" y1="220.666" x2="83.318" y2="354.021" id="gradient-3" gradientTransform="matrix(1, 0, 0, 1, 96.171179, -82.085524)">
      <stop offset="0" style="stop-color: rgba(253, 187, 88, 1)"/>
      <stop offset="1" style="stop-color: rgba(236, 143, 3, 1)"/>
    </linearGradient>
    <linearGradient gradientUnits="userSpaceOnUse" x1="294.452" y1="229.245" x2="294.452" y2="342.872" id="gradient-2" gradientTransform="matrix(2.47734, 0, -0.000002, 2.484018, -496.494681, -478.200526)">
      <stop offset="0" style="stop-color: rgba(123, 95, 180, 1)"/>
      <stop offset="1" style="stop-color: rgba(76, 55, 118, 1)"/>
    </linearGradient>
  </defs>
  <g transform="matrix(2.529813, 0, 0, 2.529813, -217.809109, -291.20663)" style="">
    <path style="fill: url(#gradient-3);" d="M 150.782 159.082 L 150.548 193.349 L 174.242 192.344 C 181.407 191.905 193.853 190.935 198.853 186.561 C 202.633 182.655 204.696 177.197 204.193 173.334 C 203.813 169.698 201.043 164.243 195.899 161.622 C 187.952 157.747 178.611 156.656 170.731 156.991 C 168.376 157.091 151.807 157.882 150.782 159.082 Z M 147.493 141.622 C 150.061 140.995 175.814 138.742 178.592 138.603 C 184.128 138.329 196.367 140.475 202.958 144.191 C 212.003 149.291 221.737 162.641 222.019 170.988 C 223.817 182.458 217.635 198.815 207.681 204.407 C 218.533 207.553 225.687 221.943 225.745 230.051 C 226.422 240.273 223.46 249.391 217.768 257.371 C 211.873 265.025 196.961 271.557 187.865 271.754 C 183.206 272.107 143.544 272.057 140.315 270.556 C 134.212 267.628 133.652 264.812 133.138 260.067 L 133.359 155.598 C 133.096 149.739 138.019 143.015 147.493 141.622 Z M 150.782 212.122 L 151.081 253.474 C 151.081 253.474 165.783 255.082 179.461 254.209 C 191.504 253.439 199.432 249.185 203.136 246.081 C 204.478 244.953 205.249 243.914 205.904 242.422 C 207.111 239.667 208.084 235.702 207.455 231.079 C 206.708 225.581 200.837 220.743 197.953 218.677 C 191.887 214.33 183.827 212.59 179.54 212.373 C 175.218 211.934 150.815 211.991 150.782 212.122 Z"/>
  </g>
  <path style="fill: url(#gradient-2);" d="M 270.191 134.592 L 296.997 154.639 C 305.987 146.353 305.787 132.982 304.111 128.391 C 300.285 117.912 289.503 108.762 279.266 102.906 C 268.928 96.993 245.472 90.799 223.794 91.278 C 205.031 91.691 187.949 94.893 168.828 105.435 C 154.186 114.207 143.357 129.381 139.58 144.367 C 137.504 150.293 135.224 172.652 137.564 184.312 C 139.735 198.825 144.245 209.969 150.263 216.957 C 155.618 223.238 167.438 233.893 184.462 236.898 C 194.41 238.85 223.549 240.936 238.419 243.975 C 247.332 245.395 262.637 250.384 276.457 258.736 C 286.854 265.166 290.578 282.361 292.089 292.105 C 292.405 303.306 288.445 317.235 279.767 324.877 C 273.723 330.944 252.114 336.24 234.89 335.999 C 226.316 336.242 202.132 335.905 192.532 334.988 L 166.814 316.788 C 158.856 323.087 155.4 331.942 155.213 339.034 C 155.103 348.477 156.905 355.207 164.795 361.788 C 169.233 365.489 183.964 370.622 196.565 372.406 C 206.705 373.843 230.085 373.704 241.949 372.911 C 257.035 372.026 276.215 366.911 282.794 364.315 C 292.081 361.549 306.845 352.076 313.052 345.102 C 320.201 337.414 325.507 324.713 328.18 311.225 C 329.957 302.239 329.777 285.916 327.17 274.314 C 324.507 262.454 319.753 253.915 312.042 243.975 C 307.13 237.644 298.477 226.588 283.3 219.201 C 276.702 215.543 262.196 209.634 250.522 208.582 C 243.442 208.202 205.121 203.953 198.582 203.02 C 185.829 201.932 177.77 196.043 175.888 187.346 C 174.184 181.466 172.669 168.262 174.568 157.994 C 176.155 150.075 180.394 141.09 188.879 136.153 C 195.037 132.679 207.413 128.145 217.649 127.176 C 223.747 126.599 233.917 126.054 241.003 127.056 C 247.191 127.931 262.733 129.005 270.191 134.592 Z" transform="matrix(0.99962, 0.027579, -0.027579, 0.99962, 6.497313, -6.336476)"/>
</svg>